<svg width="2058" height="527" fill="none" xmlns="http://www.w3.org/2000/svg"><path d="M0 454l106.918 16c49.355 0 79.855-44.376 79.855-105.918 0-52.776-23.623-103.291-52.793-105.117v-3.653c26.286-8.583 43.921-54.419 43.921-95.691 0-56.976-27.506-93.5-79.412-93.5L0 80v374zm61.666-81.082v-78.891H91.39c18.744 0 30.168 14.61 30.168 40.907 0 25.018-10.315 37.984-31.055 37.984H61.666zm0-141.711v-71.586h26.175c15.306 0 26.619 12.783 26.619 35.793 0 23.01-11.313 35.793-27.506 35.793H61.666zM267.026 41.688L205.36 50.5v431.25l61.666 7.75V41.688zM296.251 37.5V493l60.335 7.5V245.82h1.775l50.575 261.68 36.379 4.5 50.91-257.219H498V519l60 7V0l-76.75 11-52.794 337.758h-2.661L373.001 26.5l-76.75 11z" fill="#1765B2"/><path d="M584 0l67.458 1c21.816 0 37.987 12.561 48.512 37.684 10.717 24.599 16.075 58.665 16.075 104.2 0 27.216-2.87 51.291-8.611 72.226-5.55 20.936-13.3 34.02-23.252 39.254v.785c11.1 5.757 19.999 19.627 26.696 41.609 6.698 21.982 10.047 47.366 10.047 76.152 0 44.488-6.123 87.816-18.371 113.986-12.248 26.169-29.375 37.253-51.383 37.253l-67.171 2V0zm67.745 227.672c13.587 0 23.634-6.804 30.141-20.412 6.698-14.132 10.047-35.59 10.047-64.376 0-56.002-13.396-84.003-40.188-84.003h-44.781v168.791h44.781zm4.88 239.597c13.396 0 23.443-7.328 30.141-21.982 6.698-15.179 10.047-44.637 10.047-72.377 0-27.739-3.349-48.936-10.047-63.591-6.698-15.178-16.745-22.767-30.141-22.767h-49.661v180.717h49.661zM918.22 325.021c0 66.47-6.41 116.714-19.23 150.734-12.63 33.497-31 42.245-55.11 42.245-24.12 0-42.583-9.01-55.405-43.03-12.63-34.02-18.945-84.003-18.945-149.949V5h22.964v304.319c0 54.432 4.115 94.471 12.343 120.117 8.423 25.122 21.433 37.683 39.043 37.683 17.6 0 30.52-12.561 38.75-37.683 8.42-25.646 12.63-65.685 12.63-120.117V8l22.96 1v316.021zM1046.46 303.039h-45.36v210.11l-22.96 1V10l71.76 2c19.33 0 34.83 13.608 46.51 40.824 11.67 27.216 17.51 52.114 17.51 98.695 0 36.637-3.73 67.517-11.2 92.639-7.46 25.123-17.7 42.394-30.71 51.815l53.39 213.176-27.27 1-51.67-207.11zm-45.36-58.881h48.52c26.79 0 40.18-30.879 40.18-92.639 0-61.759-13.39-80.638-40.18-80.638l-48.52-1v174.277zM1306.26 444.269v59.88l-137.22 4V15l132.91 3v58.881l-109.94-4v153.22h85.54v58.881h-85.54v163.287l114.25-4zM1458.59 374.481h-85.82l-20.1 127.668-24.11 1L1402.33 21l27.17 1 73.59 475.149-24.4 1-20.1-123.668zm-8.32-58.881l-25.55-162.707-8.9-74.227-.57 2-8.33 69.871-25.83 165.063h69.18zM1681.84 293.021c0 66.47-6.41 116.714-19.24 150.734-12.63 33.497-31 50.245-55.11 50.245s-42.58-17.01-55.4-51.03c-12.63-34.02-18.95-84.003-18.95-149.949V24l22.97 1v252.319c0 54.432 4.11 109.471 12.34 135.117 8.42 25.122 21.43 37.683 39.04 37.683s30.52-12.561 38.75-37.683c8.42-25.646 12.63-80.685 12.63-135.117V27.5l22.97 1v264.521zM1878.96 426.5v58.881l-137.21 4.5V30l132.91 3v58.881L1764.72 88.5v137.601h85.54v58.881h-85.54v145.454l114.24-3.936zM2058 96.881l-66.02-2.381V482l-22.97 1V93.881l-66.02-2V34L2058 38v58.881z" fill="#000"/></svg>