<svg width="2058" height="527" viewBox="0 0 2058 527" fill="none" xmlns="http://www.w3.org/2000/svg">
<path d="M0 454L106.918 470C156.273 470 186.773 425.624 186.773 364.082C186.773 311.306 163.15 260.791 133.98 258.965V255.312C160.266 246.729 177.901 200.893 177.901 159.621C177.901 102.645 150.395 66.121 98.489 66.121L0 80V454ZM61.666 372.918V294.027H91.39C110.134 294.027 121.558 308.637 121.558 334.934C121.558 359.952 111.243 372.918 90.503 372.918H61.666ZM61.666 231.207V159.621H87.841C103.147 159.621 114.46 172.404 114.46 195.414C114.46 218.424 103.147 231.207 86.954 231.207H61.666Z" fill="#1765B2"/>
<path d="M267.026 41.688L205.36 50.5V481.75L267.026 489.5V41.688Z" fill="#1765B2"/>
<path d="M296.251 37.5V493L356.586 500.5V245.82H358.361L408.936 507.5L445.315 512L496.225 254.781H498V519L558 526V0L481.25 11L428.456 348.758H425.795L373.001 26.5L296.251 37.5Z" fill="#1765B2"/>
<path d="M584 0L651.458 1C673.274 1 689.445 13.561 699.97 38.684C710.687 63.283 716.045 97.349 716.045 142.884C716.045 170.1 713.175 194.175 707.434 215.11C701.884 236.046 694.134 249.13 684.182 254.364V255.149C695.282 260.906 704.181 274.776 710.878 296.758C717.576 318.74 720.925 344.124 720.925 372.91C720.925 417.398 714.802 460.726 702.554 486.896C690.306 513.065 673.179 524.149 651.171 524.149L584 526.149V0ZM651.745 227.672C665.332 227.672 675.379 220.868 681.886 207.26C688.584 193.128 691.933 171.67 691.933 142.884C691.933 86.882 678.537 58.881 651.745 58.881H606.964V227.672H651.745ZM656.625 467.269C670.021 467.269 680.068 459.941 686.766 445.287C693.464 430.108 696.813 400.65 696.813 372.91C696.813 345.171 693.464 323.974 686.766 309.319C680.068 294.141 670.021 286.552 656.625 286.552H606.964V467.269H656.625Z" fill="black"/>
<path d="M918.22 325.021C918.22 391.491 911.81 441.735 898.99 475.755C886.36 509.252 867.99 518 843.88 518C819.76 518 801.297 508.99 788.475 474.97C775.845 440.95 769.53 390.967 769.53 325.021V5H792.494V309.319C792.494 363.751 796.609 403.79 804.837 429.436C813.26 454.558 826.27 467.119 843.88 467.119C861.48 467.119 874.4 454.558 882.63 429.436C891.05 403.79 895.26 363.751 895.26 309.319V8L918.22 9V325.021Z" fill="black"/>
<path d="M1046.46 303.039H1001.1V513.149L978.14 514.149V10L1049.9 12C1069.23 12 1084.73 25.608 1096.41 52.824C1108.08 80.04 1113.92 104.938 1113.92 151.519C1113.92 188.156 1110.19 219.036 1102.72 244.158C1095.26 269.281 1085.02 286.552 1072.01 295.973L1125.4 509.149L1098.13 510.149L1046.46 303.039ZM1001.1 244.158H1049.62C1076.41 244.158 1089.8 213.279 1089.8 151.519C1089.8 89.76 1076.41 70.881 1049.62 70.881L1001.1 69.881V244.158Z" fill="black"/>
<path d="M1306.26 444.269V504.149L1169.04 508.149V15L1301.95 18V76.881L1192.01 72.881V226.101H1277.55V284.982H1192.01V448.269L1306.26 444.269Z" fill="black"/>
<path d="M1458.59 374.481H1372.77L1352.67 502.149L1328.56 503.149L1402.33 21L1429.5 22L1503.09 497.149L1478.69 498.149L1458.59 374.481ZM1450.27 315.6L1424.72 152.893L1415.82 78.666L1415.25 80.666L1406.92 150.537L1381.09 315.6H1450.27Z" fill="black"/>
<path d="M1681.84 293.021C1681.84 359.491 1675.43 409.735 1662.6 443.755C1649.97 477.252 1631.6 494 1607.49 494C1583.38 494 1564.91 476.99 1552.09 442.97C1539.46 408.95 1533.14 358.967 1533.14 293.021V24L1556.11 25V277.319C1556.11 331.751 1560.22 386.79 1568.45 412.436C1576.87 437.558 1589.88 450.119 1607.49 450.119C1625.1 450.119 1638.01 437.558 1646.24 412.436C1654.66 386.79 1658.87 331.751 1658.87 277.319V27.5L1681.84 28.5V293.021Z" fill="black"/>
<path d="M1878.96 426.5V485.381L1741.75 489.881V30L1874.66 33V91.881L1764.72 88.5V226.101H1850.26V284.982H1764.72V430.436L1878.96 426.5Z" fill="black"/>
<path d="M2058 96.881L1991.98 94.5V482L1969.01 483V93.881L1902.99 91.881V34L2058 38V96.881Z" fill="black"/>
</svg>
